<svg width="277" height="264" viewBox="0 0 277 264" fill="none" xmlns="http://www.w3.org/2000/svg">
<path d="M25.2312 221.159C30.6492 227.176 36.9252 232.693 44.0442 237.6C56.7032 246.328 72.0312 253.119 89.9412 257.31C138.881 268.764 194.33 266.057 232.906 237.6C239.338 232.853 245.306 227.389 250.69 221.159C255.925 215.104 260.611 208.328 264.653 200.771C297.815 138.798 259.059 52.3499 193.479 48.4949C127.747 44.6279 115.694 81.1719 87.4202 88.3289C59.1502 95.4859 8.05624 88.2379 0.987239 140.426C-3.03876 170.163 5.28924 199.02 25.2312 221.159Z" fill="#E6EEFF"/>
<path d="M25.2312 221.159C30.6492 227.176 36.9252 232.693 44.0442 237.6H232.906C239.338 232.853 245.306 227.389 250.69 221.159H25.2312Z" fill="#D7E4F9"/>
<path d="M72.8793 209.468C71.1453 191.136 82.8643 171.157 82.8643 171.157C82.8643 171.157 91.1833 192.34 82.9293 210.762" fill="#3EAEBD"/>
<path d="M81.7172 217.93C83.0682 199.566 70.9342 179.836 70.9342 179.836C70.9342 179.836 63.0592 201.188 71.6962 219.434" fill="#3E83BD"/>
<path d="M78.0493 212.867C75.3313 194.655 59.1583 178.074 59.1583 178.074C59.1583 178.074 56.1683 200.635 68.6043 216.536" fill="#3ED9BD"/>
<path d="M76.3292 212.867C79.0472 194.655 95.2202 178.074 95.2202 178.074C95.2202 178.074 98.2102 200.635 85.7742 216.536" fill="#3ED9BD"/>
<path d="M62.6722 209.197H91.7072L88.4522 237.6H65.9272L62.6722 209.197Z" fill="white"/>
<path d="M54.3493 112.6H86.0673L107.953 145.32L109.715 161.901L74.6513 158.639L63.2743 149.669L52.3623 134.719" fill="#97B8E8"/>
<path d="M127.089 164.62C126.358 162.497 124.312 161.109 122.07 161.225C111.855 161.756 83.4942 161.98 70.5182 149.365C59.4432 138.599 58.6333 125.208 59.1813 117.998C59.3973 115.157 57.1972 112.712 54.3502 112.601L54.0602 112.59C51.3532 112.484 49.0462 114.534 48.8372 117.235C48.0652 127.205 48.5652 150.177 67.2992 162.616C85.7182 174.845 111.532 172.921 123.051 171.25C126.178 170.795 128.117 167.608 127.089 164.62Z" fill="#B8CEF4"/>
<path d="M142.348 46.5499V91.0479C142.348 91.8829 143.023 92.5619 143.858 92.5619H216.66C217.495 92.5619 218.174 91.8829 218.174 91.0479V46.5499C218.174 45.7149 217.495 45.0359 216.66 45.0359H143.858C143.473 45.0359 143.126 45.1809 142.859 45.4169C142.546 45.6919 142.348 46.0999 142.348 46.5499Z" fill="#906DFF"/>
<path d="M142.348 46.5499V61.8709H218.174V46.5499C218.174 45.7149 217.495 45.0359 216.66 45.0359H143.858C143.473 45.0359 143.126 45.1809 142.859 45.4169C142.546 45.6919 142.348 46.0999 142.348 46.5499Z" fill="#CFC5FF"/>
<path opacity="0.36" d="M203.493 53.0829C203.493 54.5839 204.71 55.8009 206.211 55.8009C207.712 55.8009 208.929 54.5839 208.929 53.0829C208.929 51.5819 207.712 50.3649 206.211 50.3649C204.71 50.3649 203.493 51.5819 203.493 53.0829Z" fill="white"/>
<path d="M187.32 53.989H199.642C200.142 53.989 200.548 53.5829 200.548 53.0829C200.548 52.5829 200.142 52.1769 199.642 52.1769H187.32C186.82 52.1769 186.414 52.5829 186.414 53.0829C186.414 53.5829 186.819 53.989 187.32 53.989Z" fill="white"/>
<path d="M142.858 45.4169C143.125 45.1809 143.472 45.0359 143.857 45.0359H145.051H150.404H155.075C155.231 45.7759 155.311 46.5459 155.311 47.3319C155.311 53.4789 150.331 58.4579 144.185 58.4579C143.56 58.4579 142.946 58.4049 142.347 58.3019V53.6999V46.5509C142.348 46.0999 142.546 45.6919 142.858 45.4169Z" fill="#9893FF"/>
<path d="M149.816 87.8449C149.816 87.8449 152.262 78.1559 159.466 78.1559C166.669 78.1559 164.902 83.0009 172.921 83.0009C180.94 83.0009 178.501 72.5289 186.855 72.5289C195.21 72.5289 192.627 78.9389 200.102 78.9389C207.577 78.9389 210.703 69.5379 210.703 69.5379" stroke="#6E4FED" stroke-width="1.5252" stroke-miterlimit="10" stroke-linecap="round" stroke-linejoin="round"/>
<path d="M149.816 87.8449C149.816 87.8449 152.262 75.5189 159.466 75.5189C166.669 75.5189 164.902 81.6819 172.921 81.6819C180.94 81.6819 178.501 68.3589 186.855 68.3589C195.21 68.3589 192.627 76.5139 200.102 76.5139C207.577 76.5139 210.703 64.5539 210.703 64.5539" stroke="#F7F7F7" stroke-width="1.5252" stroke-miterlimit="10" stroke-linecap="round" stroke-linejoin="round"/>
<path d="M153.341 48.5262C154.884 42.5787 151.314 36.5061 145.367 34.9625C139.419 33.419 133.346 36.989 131.803 42.9365C130.259 48.884 133.829 54.9566 139.777 56.5002C145.724 58.0438 151.797 54.4737 153.341 48.5262Z" fill="#FFBA51"/>
<path d="M149.213 45.7329C149.213 49.3919 146.247 52.3589 142.587 52.3589C138.927 52.3589 135.961 49.3919 135.961 45.7329C135.961 42.0739 138.928 39.1069 142.587 39.1069C146.246 39.1069 149.213 42.0729 149.213 45.7329Z" fill="#FF8E51"/>
<path d="M142.208 48.4919V47.8029C141.722 47.7819 141.25 47.6509 140.975 47.4909L141.193 46.6419C141.498 46.8089 141.926 46.9609 142.398 46.9609C142.811 46.9609 143.094 46.8009 143.094 46.5109C143.094 46.2349 142.862 46.0609 142.325 45.8799C141.549 45.6189 141.019 45.2559 141.019 44.5519C141.019 43.9129 141.469 43.4129 142.245 43.2609V42.5719H142.956V43.2109C143.442 43.2329 143.769 43.3339 144.008 43.4499L143.798 44.2699C143.609 44.1899 143.276 44.0229 142.753 44.0229C142.282 44.0229 142.129 44.2259 142.129 44.4289C142.129 44.6689 142.383 44.8209 143 45.0529C143.863 45.3579 144.212 45.7569 144.212 46.4099C144.212 47.0559 143.755 47.6069 142.92 47.7519V48.4919H142.208Z" fill="#FFBA51"/>
<path d="M166.751 93.5789L168.837 100.785C169.84 100.194 171.243 99.9769 172.7 99.8509C174.206 99.7179 175.769 99.6829 177.001 99.4389C177.95 99.2449 178.705 98.9279 179.075 98.3409C180.39 96.2549 177.759 91.0009 177.759 91.0009C177.759 91.0009 183.787 86.7869 183.379 85.4299C182.971 84.0689 178.895 88.2359 172.096 90.2309C172.55 89.2359 172.866 85.9719 172.096 85.8339C171.326 85.7019 166.751 93.5789 166.751 93.5789Z" fill="#FFC5D0"/>
<path d="M171.895 94.8719C171.941 96.7779 172.394 98.7349 172.7 99.8519C174.206 99.7189 175.769 99.6839 177.001 99.4399C172.326 99.3029 173.424 97.8009 172.711 94.7619C171.964 91.5669 173.39 92.5199 177.759 91.0019C177.759 91.0019 175.902 91.2269 174.24 91.3979C172.573 91.5659 171.826 91.9739 171.895 94.8719Z" fill="#FF81A7"/>
<path d="M117.055 103.324C115.429 120.74 116.511 130.913 116.511 130.913H73.4282C73.4282 130.913 74.9882 120.856 75.4312 110.663C75.8742 100.47 81.8092 72.8359 81.8092 72.8359L93.3792 59.2199L103.905 59.9709L114.337 70.0259" fill="white"/>
<path d="M103.905 59.9719L106.124 64.5049L110.315 73.0649L113.514 79.6009L118.01 88.7829C118.521 89.6709 119.398 91.4979 120.546 93.7669C123.337 99.2729 127.718 107.406 132.248 111.2C134.014 112.683 135.806 113.503 137.533 113.248C143.55 112.36 159.454 106.266 167.03 103.17C169.497 102.16 171.083 101.466 171.148 101.378C171.419 101.016 167.613 92.6809 167.072 92.1389C166.95 92.0169 165.463 92.2949 163.24 92.7989C155.606 94.5299 139.252 98.9299 139.252 98.9299C139.252 98.9299 130.375 83.0749 126.479 74.9189C123.028 67.6969 117.091 63.1749 107.711 60.7919C106.501 60.4819 105.232 60.2079 103.905 59.9719Z" fill="#AEE0FF"/>
<path d="M163.239 92.7979L167.029 103.169C169.496 102.159 171.082 101.465 171.147 101.377C171.418 101.015 167.612 92.6799 167.071 92.1379C166.949 92.0159 165.462 92.2939 163.239 92.7979Z" fill="#D6E5FF"/>
<path d="M113.513 79.6009L118.009 88.7829C119.751 91.8369 125.852 105.842 132.247 111.2C130.699 109.305 129.494 106.678 127.519 103.052C123.344 95.3919 125.616 81.7139 118.364 74.3969L113.513 79.6009Z" fill="#92C7FF"/>
<path d="M103.905 59.9719C104.694 61.2569 105.434 62.7899 106.124 64.5049C107.478 67.8529 108.641 71.9019 109.609 76.1999C111.992 86.7469 113.197 98.7689 113.113 105.499C112.976 116.37 111.756 123.901 112.434 123.737C113.113 123.577 122.897 126.7 122.356 122.624C121.811 118.548 119.5 101.95 119.5 98.2889C119.5 96.9309 120.022 95.5019 120.545 93.7669C121.441 90.8199 122.348 86.9909 120.724 81.1719C118.962 74.8659 116.019 68.1619 111.428 63.9489C109.293 61.9849 106.803 60.5619 103.905 59.9719Z" fill="#AEE0FF"/>
<path d="M68.0362 120.793C68.2192 123.264 90.8682 124.301 90.8682 124.301C90.8682 124.301 90.9142 124.11 90.9982 123.737C91.1392 123.1 91.3792 121.934 91.6802 120.298C92.2142 117.381 92.9192 112.965 93.5182 107.368C93.7432 105.282 93.9532 103.029 94.1322 100.63C94.6122 94.1749 94.8792 86.6509 94.6472 78.3769C94.4872 72.6989 94.0902 66.6749 93.3662 60.3979C93.3512 60.2569 93.3322 60.1119 93.3162 59.9709L87.8182 63.1009L79.6352 67.7599L74.0182 72.6519C74.0182 72.6519 73.9682 73.9179 73.8852 76.1479C73.7482 79.8849 73.5192 86.3169 73.2902 94.0349C73.1992 97.1389 72.8102 100.216 72.2802 103.125C71.4872 107.506 70.3742 111.502 69.4852 114.621C68.6192 117.67 67.9712 119.878 68.0362 120.793Z" fill="#AEE0FF"/>
<path d="M69.4852 114.623C74.5182 120.484 84.6762 122.825 90.9982 123.736C91.4782 121.54 93.2022 113.067 94.1322 100.629C88.7372 94.6499 79.1052 82.8759 76.9162 72.8359L73.8852 76.1489C73.7482 79.8859 73.5192 86.3179 73.2902 94.0359C73.0612 101.808 70.9642 109.43 69.4852 114.623Z" fill="#92C7FF"/>
<path d="M123.686 113.293L128.522 94.9879L153.017 94.7619L142.928 130.37H119.144L123.686 113.293Z" fill="#FF7F51"/>
<path d="M124.416 113.293L129.252 94.9879L153.748 94.7619L143.659 130.37H119.875L124.416 113.293Z" fill="#FFA151"/>
<path d="M116.239 112.022L124.484 110.663L123.623 113.834C123.623 113.834 128.867 113.925 132.955 113.607C137.043 113.29 136.67 114.422 134.405 115.691C132.14 116.96 131.777 118.228 129.15 120.312C126.522 122.396 123.895 122.038 120.542 120.79C117.189 119.542 114.335 119.497 114.335 119.497" fill="#FFC5D0"/>
<path d="M69.6223 95.4399C70.4913 98.0519 71.3683 100.652 72.2803 103.127C74.9303 110.315 77.8433 116.423 81.5843 118.547C83.1323 119.424 87.0253 119.969 91.6813 120.297C98.3203 120.77 106.498 120.816 111.612 120.781C114.579 120.762 116.512 120.72 116.512 120.72V110.799L112.055 110.132L93.5203 107.368L89.1963 106.724L77.6583 72.8799L88.4033 64.3429L93.3683 60.3999L94.8513 59.2219C93.4553 59.5389 91.7173 59.7519 89.7953 60.0039C83.4623 60.8319 75.1613 62.0629 70.7793 68.7359C65.0693 77.4349 66.2253 85.2479 69.6223 95.4399Z" fill="#AEE0FF"/>
<path d="M87.4252 61.8699C87.4022 62.0679 87.5472 62.4919 87.8182 63.1019C87.9702 63.4529 88.1732 63.8719 88.4012 64.3409C89.9192 67.4219 92.8392 72.8399 94.6472 78.3769C94.4872 72.6989 94.0902 66.6749 93.3662 60.3979L94.8492 59.2199C93.4532 59.5369 91.7152 59.7499 89.7932 60.0019C88.5542 60.6459 87.5132 61.1689 87.4252 61.8699Z" fill="#92C7FF"/>
<path d="M111.611 120.781C114.578 120.762 116.511 120.72 116.511 120.72V110.799L112.054 110.132L111.611 120.781Z" fill="#D6E5FF"/>
<path d="M136.314 96.5739H144.601C145.29 96.5739 146.033 96.0159 146.261 95.3269L146.561 94.4209C146.789 93.7319 146.415 93.1739 145.726 93.1739H137.439C136.75 93.1739 136.007 93.7329 135.779 94.4209L135.479 95.3269C135.251 96.0149 135.625 96.5739 136.314 96.5739Z" fill="#A2336B"/>
<path d="M102.662 157.687C116.526 165.706 147.816 163.895 147.816 163.895L155.842 177.031L182.804 221.159H202.239C202.239 221.159 176.719 161.039 168.246 148.944C160.685 138.146 124.64 132.254 116.999 131.118H116.995C116.08 130.981 115.573 130.912 115.573 130.912H89.9652C89.9652 130.912 88.8012 149.669 102.662 157.687Z" fill="#60338E"/>
<path d="M102.662 157.687C116.526 165.706 147.816 163.895 147.816 163.895L155.842 177.031C153.482 168.879 149.844 157.684 146.088 151.301C140.247 141.36 120.373 132.556 116.999 131.119H116.995C116.682 130.982 116.511 130.913 116.511 130.913H89.9652C89.9652 130.913 88.8012 149.669 102.662 157.687Z" fill="#421D8E"/>
<path d="M73.4282 130.913C73.4282 130.913 66.2252 149.668 80.0882 157.687C93.9512 165.706 120.589 163.531 120.589 163.531L141.383 221.157H160.818C160.818 221.157 149.492 160.677 141.02 148.581C132.549 136.485 92.9992 130.913 92.9992 130.913H73.4282Z" fill="#60338E"/>
<path d="M182.804 221.159L183.292 226.951L184.127 236.819C184.165 237.261 184.535 237.601 184.981 237.601H226.867C227.74 237.601 228.057 236.453 227.305 236.007L205.239 222.936L202.238 221.159H182.804Z" fill="#FFC5D0"/>
<path d="M141.577 221.159L142.347 230.268L142.839 236.079C142.911 236.941 143.632 237.6 144.494 237.6H173.061C174.537 237.6 175.28 235.823 174.247 234.771L165.645 226.051L160.818 221.159H141.577Z" fill="#FFC5D0"/>
<path d="M183.292 226.951L184.127 236.819C184.165 237.261 184.535 237.601 184.981 237.601H226.867C227.74 237.601 228.057 236.453 227.305 236.007L205.239 222.936L200.033 227.436C198.609 228.667 196.71 229.2 194.853 228.889L183.292 226.951Z" fill="white"/>
<path d="M142.348 230.268L142.84 236.079C142.912 236.941 143.633 237.6 144.495 237.6H173.062C174.538 237.6 175.281 235.823 174.248 234.771L165.646 226.051H154.271C153.324 226.051 152.412 226.405 151.713 227.043L149.266 229.276C148.567 229.914 147.654 230.268 146.707 230.268H142.348Z" fill="white"/>
<path d="M102.105 22.5939C112.72 23.6639 115.356 32.3109 114.133 39.5149C112.91 46.7179 122.695 53.7129 115.084 58.8459C107.473 63.9789 104.891 55.8689 97.8913 56.6959C90.8923 57.5229 85.2523 63.0789 80.3593 56.4959C75.4663 49.9129 77.8453 47.3979 82.4663 43.5249C87.0873 39.6499 85.9313 20.9629 102.105 22.5939Z" fill="#A2336B"/>
<path d="M93.3163 59.9699C93.3163 59.9699 94.5863 63.4129 97.4843 64.1379C100.382 64.8629 103.329 63.5469 103.692 61.9189C103.825 61.3199 103.993 60.1229 104.153 58.8459C104.431 56.6309 104.687 54.1709 104.687 54.1709L96.2113 50.0229L94.2243 49.0509L93.3163 59.9699Z" fill="#FFC5D0"/>
<path d="M104.153 58.8449C104.128 59.0679 104.672 54.2869 104.687 54.1699L96.2112 50.0219C95.3912 50.0139 94.8802 50.2729 94.8572 50.9099C94.7312 54.1849 96.5152 58.9099 104.153 58.8449Z" fill="#FF81A7"/>
<path d="M92.5232 47.7379C92.5232 47.7379 95.1392 57.0459 103.737 56.4699C111.969 55.9129 111.226 42.0759 110.669 38.1029C110.646 37.9279 110.623 37.7669 110.6 37.6339C109.041 37.2109 107.904 36.2689 107.172 35.4639C107.077 35.3569 106.989 35.2539 106.905 35.1549C106.421 34.5599 106.18 34.1029 106.18 34.1029C106.18 34.1029 105.932 38.3769 100.361 39.0559C94.7902 39.7379 93.7452 38.5979 93.2692 39.5479C93.2082 39.6739 93.1662 39.8489 93.1362 40.0589C93.1282 40.1089 93.1212 40.1579 93.1172 40.2119C93.1022 40.3489 93.0902 40.5019 93.0862 40.6619C93.0292 42.1799 93.2842 44.4899 92.7922 44.7499C92.1482 45.0889 91.9112 41.2839 89.0902 42.4049C86.2702 43.5239 88.7862 48.8929 92.5232 47.7379Z" fill="#FFC5D0"/>
<path d="M93.1183 40.2109C100.34 43.3149 105.617 39.7119 107.173 35.4639C107.078 35.3569 106.99 35.2539 106.906 35.1549C106.422 34.5599 106.181 34.1029 106.181 34.1029C106.181 34.1029 105.933 38.3769 100.362 39.0559C94.7913 39.7379 93.7463 38.5979 93.2703 39.5479C93.2093 39.6739 93.1673 39.8489 93.1373 40.0589C93.1293 40.1079 93.1223 40.1569 93.1183 40.2109Z" fill="#FF81A7"/>
<path d="M103.905 59.9719L106.124 64.5049C107.478 67.8529 108.641 71.9019 109.609 76.1999C109.838 75.1859 110.078 74.1069 110.314 73.0659C110.813 70.8659 111.298 68.8339 111.618 67.9179C112.076 66.6139 112.243 65.3099 111.427 63.9489C110.828 62.9389 109.681 61.8899 107.709 60.7919C106.501 60.4819 105.232 60.2079 103.905 59.9719Z" fill="#92C7FF"/>
<path d="M233.665 112.566H198.51C197.91 112.566 197.423 112.079 197.423 111.479V83.8889C197.423 83.2889 197.91 82.8019 198.51 82.8019H233.665C234.265 82.8019 234.752 83.2889 234.752 83.8889V111.479C234.752 112.079 234.265 112.566 233.665 112.566Z" fill="#3ED9BD"/>
<path opacity="0.36" d="M204.988 89.8459C204.988 90.6839 204.308 91.3639 203.47 91.3639C202.632 91.3639 201.952 90.6839 201.952 89.8459C201.952 89.0079 202.632 88.3279 203.47 88.3279C204.308 88.3279 204.988 89.0079 204.988 89.8459Z" fill="white"/>
<path d="M214.018 90.3519H207.138C206.859 90.3519 206.632 90.1249 206.632 89.8459C206.632 89.5669 206.859 89.3399 207.138 89.3399H214.018C214.297 89.3399 214.524 89.5669 214.524 89.8459C214.524 90.1259 214.297 90.3519 214.018 90.3519Z" fill="white"/>
<path d="M206.527 99.3199H203.838C203.575 99.3199 203.362 99.5329 203.362 99.7959V107.339C203.362 107.602 203.575 107.815 203.838 107.815H206.527C206.79 107.815 207.003 107.602 207.003 107.339V99.7959C207.003 99.5329 206.79 99.3199 206.527 99.3199Z" fill="#3EC2BD"/>
<path d="M214.299 102.718H211.61C211.347 102.718 211.134 102.931 211.134 103.194V107.339C211.134 107.602 211.347 107.815 211.61 107.815H214.299C214.562 107.815 214.775 107.602 214.775 107.339V103.194C214.774 102.931 214.561 102.718 214.299 102.718Z" fill="#3EC2BD"/>
<path d="M222.071 97.8929H219.382C219.119 97.8929 218.906 98.1059 218.906 98.3689V107.339C218.906 107.602 219.119 107.815 219.382 107.815H222.071C222.334 107.815 222.547 107.602 222.547 107.339V98.3689C222.546 98.1059 222.333 97.8929 222.071 97.8929Z" fill="#3EC2BD"/>
<path d="M229.842 94.5629H227.153C226.89 94.5629 226.677 94.7759 226.677 95.0389V107.339C226.677 107.602 226.89 107.815 227.153 107.815H229.842C230.105 107.815 230.318 107.602 230.318 107.339V95.0389C230.318 94.7759 230.105 94.5629 229.842 94.5629Z" fill="#3EC2BD"/>
<path d="M205.774 98.5669H203.085C202.822 98.5669 202.609 98.7799 202.609 99.0429V106.586C202.609 106.849 202.822 107.062 203.085 107.062H205.774C206.037 107.062 206.25 106.849 206.25 106.586V99.0429C206.249 98.7799 206.037 98.5669 205.774 98.5669Z" fill="white"/>
<path d="M213.546 101.965H210.857C210.594 101.965 210.381 102.178 210.381 102.441V106.586C210.381 106.849 210.594 107.062 210.857 107.062H213.546C213.809 107.062 214.022 106.849 214.022 106.586V102.441C214.021 102.178 213.808 101.965 213.546 101.965Z" fill="white"/>
<path d="M221.317 97.14H218.628C218.365 97.14 218.152 97.353 218.152 97.616V106.586C218.152 106.849 218.365 107.062 218.628 107.062H221.317C221.58 107.062 221.793 106.849 221.793 106.586V97.616C221.793 97.353 221.58 97.14 221.317 97.14Z" fill="white"/>
<path d="M229.089 93.8099H226.4C226.137 93.8099 225.924 94.0229 225.924 94.2859V106.586C225.924 106.849 226.137 107.062 226.4 107.062H229.089C229.352 107.062 229.565 106.849 229.565 106.586V94.2859C229.565 94.0229 229.352 93.8099 229.089 93.8099Z" fill="white"/>
<path d="M186.867 36.1342C193.519 29.4821 193.519 18.6969 186.867 12.0447C180.215 5.39262 169.43 5.39264 162.778 12.0448C156.125 18.6969 156.125 29.4821 162.778 36.1342C169.43 42.7864 180.215 42.7864 186.867 36.1342Z" fill="#F0619A"/>
<path d="M167.593 24.5919V30.739C167.593 31.273 168.028 31.711 168.565 31.711H181.083C181.617 31.711 182.055 31.273 182.055 30.739V24.5919C181.056 24.5919 180.248 23.7799 180.248 22.7849V21.252H169.4V22.7849C169.401 23.7799 168.592 24.5919 167.593 24.5919Z" fill="#FFC5DD"/>
<path d="M178.628 16.4659L179.879 20.1569L180.249 21.2509H183.864L181.328 16.7509C181.229 16.5719 181.042 16.4649 180.84 16.4649L178.628 16.4659Z" fill="#FFC5DD"/>
<path d="M176.092 16.4659L176.508 20.1579L176.63 21.252H180.248L179.879 20.1579L178.628 16.4659H176.092Z" fill="#9F4F9A"/>
<path d="M173.015 21.252H176.63L176.508 20.1579L176.092 16.4659H173.557L173.137 20.1579L173.015 21.252Z" fill="#FFC5DD"/>
<path d="M169.401 21.252H173.015L173.137 20.1579L173.557 16.4659H171.017L169.77 20.1579L169.401 21.252Z" fill="#9F4F9A"/>
<path d="M165.786 21.2519H169.401L169.771 20.1579L171.018 16.4669H168.81C168.608 16.4669 168.421 16.5739 168.322 16.7529L165.786 21.2519Z" fill="#FFC5DD"/>
<path d="M180.248 21.252V22.7849C180.248 23.7799 181.056 24.5919 182.055 24.5919C183.05 24.5919 183.862 23.7799 183.862 22.7849V21.252H180.248Z" fill="#FF9FDD"/>
<path d="M176.63 21.252V22.7849C176.63 23.7799 177.442 24.5919 178.437 24.5919C179.436 24.5919 180.248 23.7799 180.248 22.7849V21.252H176.63Z" fill="#723B9A"/>
<path d="M173.015 21.252V22.7849C173.015 23.7799 173.823 24.5919 174.822 24.5919C175.821 24.5919 176.629 23.7799 176.629 22.7849V21.252H173.015Z" fill="#FF9FDD"/>
<path d="M169.401 21.252V22.7849C169.401 23.7799 170.209 24.5919 171.208 24.5919C172.207 24.5919 173.015 23.7799 173.015 22.7849V21.252H169.401Z" fill="#723B9A"/>
<path d="M165.786 21.252V22.7849C165.786 23.7799 166.594 24.5919 167.593 24.5919C168.592 24.5919 169.4 23.7799 169.4 22.7849V21.252H165.786Z" fill="#FF9FDD"/>
<path d="M176.447 26.6779V31.7109H179.892V26.6779C179.892 26.2829 179.638 25.9609 179.326 25.9609H177.013C176.7 25.9609 176.447 26.2829 176.447 26.6779Z" fill="#B24D93"/>
<path d="M169.582 29.9569H174.143C174.601 29.9569 174.971 29.5859 174.971 29.1289V26.7899C174.971 26.3329 174.6 25.9619 174.143 25.9619H169.582C169.125 25.9619 168.754 26.3329 168.754 26.7899V29.1289C168.753 29.5859 169.124 29.9569 169.582 29.9569Z" fill="#B24D93"/>
<path d="M22.3583 25.7809V52.1549C22.3583 52.8419 22.9153 53.3979 23.6013 53.3979H62.0743C62.4043 53.3979 62.7203 53.5289 62.9533 53.7619L69.4353 60.2409C70.2183 61.0239 71.5573 60.4689 71.5573 59.3619V25.7809C71.5573 25.0939 71.0003 24.5379 70.3143 24.5379H23.6013C22.9143 24.5369 22.3583 25.0939 22.3583 25.7809Z" fill="#487CFF"/>
<path d="M32.1053 37.7839C29.4083 36.8589 27.1133 38.8759 27.1133 38.8759L29.7663 40.3419L31.8283 39.4539" fill="#4095FF"/>
<path d="M36.9163 40.8149C38.9153 42.8489 38.0873 45.7889 38.0873 45.7889L35.6193 44.0289L35.5293 41.7859" fill="#4095FF"/>
<path d="M35.6493 44.0479L29.7373 40.3229C33.9823 33.5829 38.8433 32.4239 38.8433 32.4239C38.8433 32.4239 39.8943 37.3079 35.6493 44.0479Z" fill="#7CCAFF"/>
<path d="M36.3682 38.7609C35.9902 39.3609 35.1962 39.5409 34.5962 39.1629C33.9962 38.7849 33.8162 37.9919 34.1942 37.3909C34.5722 36.7909 35.3662 36.6109 35.9662 36.9889C36.5662 37.3679 36.7462 38.1609 36.3682 38.7609Z" fill="white"/>
<path d="M61.9483 34.6059H43.8133C43.3163 34.6059 42.9143 34.2039 42.9143 33.7069C42.9143 33.2109 43.3163 32.8079 43.8133 32.8079H61.9483C62.4453 32.8079 62.8473 33.2099 62.8473 33.7069C62.8473 34.2039 62.4453 34.6059 61.9483 34.6059Z" fill="white"/>
<path d="M61.9483 40.3419H43.8133C43.3163 40.3419 42.9143 39.9399 42.9143 39.4429C42.9143 38.9459 43.3163 38.5439 43.8133 38.5439H61.9483C62.4453 38.5439 62.8473 38.9459 62.8473 39.4429C62.8473 39.9399 62.4453 40.3419 61.9483 40.3419Z" fill="#7CCAFF"/>
<path d="M56.8743 46.0779H43.8133C43.3163 46.0779 42.9143 45.6759 42.9143 45.1789C42.9143 44.6819 43.3163 44.2799 43.8133 44.2799H56.8743C57.3703 44.2799 57.7733 44.6819 57.7733 45.1789C57.7733 45.6759 57.3713 46.0779 56.8743 46.0779Z" fill="#7CCAFF"/>
<path d="M44.0442 237.6C56.7032 246.328 72.0312 253.119 89.9412 257.31C138.881 268.764 194.33 266.057 232.906 237.6H44.0442Z" fill="#D2E0FF"/>
<path d="M97.832 237.6H103.905L103.905 172.456H97.832L97.832 237.6Z" fill="#97B8E8"/>
<path d="M86.4942 237.628H115.639C117.617 237.628 119.22 236.025 119.22 234.047C119.22 232.069 117.617 230.466 115.639 230.466H86.4942C84.5162 230.466 82.9132 232.069 82.9132 234.047C82.9142 236.025 84.5172 237.628 86.4942 237.628Z" fill="#B8CEF4"/>
</svg>
